<?xml version="1.0" encoding="UTF-8"?>
<mxfile host="app.diagrams.net" modified="2025-09-20T00:21:33.751606" version="22.1.11">
  <diagram name="Network Architecture" id="diagram_0">
    <mxGraphModel dx="2500" dy="1600" grid="1" gridSize="10" guides="1" tooltips="1" connect="1" arrows="1" fold="1" page="1" pageScale="1" pageWidth="1400" pageHeight="1000">
      <root>
        <mxCell id="0"/>
        <mxCell id="1" parent="0"/>
        <mxCell id="title_1001" value="BMC NETWORK ARCHITECTURE - AWS SENIOR LEVEL" style="text;html=1;strokeColor=none;fillColor=none;align=center;verticalAlign=middle;whiteSpace=wrap;rounded=0;fontSize=18;fontStyle=1;fontColor=#1976D2;" vertex="1" parent="1">
          <mxGeometry x="400" y="20" width="600" height="30" as="geometry"/>
        </mxCell>
<mxCell id="aws_cloud_1002" value="AWS Cloud - us-east-1" style="fillColor=#E3F2FD;strokeColor=#1976D2;dashed=1;verticalAlign=top;fontStyle=1;fontSize=14;fontColor=#1976D2;" vertex="1" parent="1">
          <mxGeometry x="50" y="80" width="1200" height="800" as="geometry"/>
        </mxCell>
<mxCell id="cloudfront_1003" value="CloudFront CDN\n200+ edge locations\nSSL/TLS 1.3" style="shape=mxgraph.aws4.cloudfront;labelPosition=bottom;verticalLabelPosition=top;align=center;verticalAlign=bottom;fillColor=#E8F5E8;strokeColor=#4CAF50;fontColor=#2E7D32;" vertex="1" parent="1">
          <mxGeometry x="150" y="150" width="78" height="78" as="geometry"/>
        </mxCell>
<mxCell id="waf_1004" value="AWS WAF\nDDoS protection\nRate limiting: 2K/s" style="shape=mxgraph.aws4.waf;labelPosition=bottom;verticalLabelPosition=top;align=center;verticalAlign=bottom;fillColor=#E8F5E8;strokeColor=#4CAF50;fontColor=#2E7D32;" vertex="1" parent="1">
          <mxGeometry x="350" y="150" width="78" height="78" as="geometry"/>
        </mxCell>
<mxCell id="api_gw_1005" value="API Gateway\n10K req/s throttle\nCaching: 300s TTL" style="shape=mxgraph.aws4.api_gateway;labelPosition=bottom;verticalLabelPosition=top;align=center;verticalAlign=bottom;fillColor=#E8F5E8;strokeColor=#4CAF50;fontColor=#2E7D32;" vertex="1" parent="1">
          <mxGeometry x="550" y="150" width="78" height="78" as="geometry"/>
        </mxCell>
<mxCell id="vpc_1006" value="VPC 10.0.0.0/16 - Multi-AZ" style="fillColor=#F5F5F5;strokeColor=#666666;dashed=1;verticalAlign=top;fontStyle=1;fontSize=14;fontColor=#666666;" vertex="1" parent="1">
          <mxGeometry x="100" y="300" width="1000" height="500" as="geometry"/>
        </mxCell>
<mxCell id="az1a_1007" value="AZ us-east-1a" style="fillColor=#E8F5E8;strokeColor=#4CAF50;dashed=1;verticalAlign=top;fontStyle=1;fontSize=14;fontColor=#4CAF50;" vertex="1" parent="1">
          <mxGeometry x="150" y="350" width="400" height="200" as="geometry"/>
        </mxCell>
<mxCell id="invoice_1008" value="Invoice Service\n2vCPU/4GB\nBlue/Green deploy" style="shape=mxgraph.aws4.fargate;labelPosition=bottom;verticalLabelPosition=top;align=center;verticalAlign=bottom;fillColor=#E8F5E8;strokeColor=#4CAF50;fontColor=#2E7D32;" vertex="1" parent="1">
          <mxGeometry x="200" y="400" width="78" height="78" as="geometry"/>
        </mxCell>
<mxCell id="product_1009" value="Product Service\n4vCPU/8GB\n60M products" style="shape=mxgraph.aws4.fargate;labelPosition=bottom;verticalLabelPosition=top;align=center;verticalAlign=bottom;fillColor=#E8F5E8;strokeColor=#4CAF50;fontColor=#2E7D32;" vertex="1" parent="1">
          <mxGeometry x="350" y="400" width="78" height="78" as="geometry"/>
        </mxCell>
<mxCell id="az1b_1010" value="AZ us-east-1b" style="fillColor=#FFF3E0;strokeColor=#FF9800;dashed=1;verticalAlign=top;fontStyle=1;fontSize=14;fontColor=#FF9800;" vertex="1" parent="1">
          <mxGeometry x="600" y="350" width="400" height="200" as="geometry"/>
        </mxCell>
<mxCell id="ocr_1011" value="OCR Service\n4vCPU/8GB\nTextract integration" style="shape=mxgraph.aws4.fargate;labelPosition=bottom;verticalLabelPosition=top;align=center;verticalAlign=bottom;fillColor=#E8F5E8;strokeColor=#4CAF50;fontColor=#2E7D32;" vertex="1" parent="1">
          <mxGeometry x="650" y="400" width="78" height="78" as="geometry"/>
        </mxCell>
<mxCell id="commission_1012" value="Commission Service\n2vCPU/4GB\nDIAN compliance" style="shape=mxgraph.aws4.fargate;labelPosition=bottom;verticalLabelPosition=top;align=center;verticalAlign=bottom;fillColor=#E8F5E8;strokeColor=#4CAF50;fontColor=#2E7D32;" vertex="1" parent="1">
          <mxGeometry x="800" y="400" width="78" height="78" as="geometry"/>
        </mxCell>
<mxCell id="rds_primary_1013" value="RDS Primary\nPostgreSQL 14\ndb.r6g.2xlarge\n35-day backup" style="shape=mxgraph.aws4.rds;labelPosition=bottom;verticalLabelPosition=top;align=center;verticalAlign=bottom;fillColor=#E8F5E8;strokeColor=#4CAF50;fontColor=#2E7D32;" vertex="1" parent="1">
          <mxGeometry x="300" y="600" width="78" height="78" as="geometry"/>
        </mxCell>
<mxCell id="rds_replica_1014" value="Read Replica\nCross-AZ\nPromotion ready" style="shape=mxgraph.aws4.rds;labelPosition=bottom;verticalLabelPosition=top;align=center;verticalAlign=bottom;fillColor=#E8F5E8;strokeColor=#4CAF50;fontColor=#2E7D32;" vertex="1" parent="1">
          <mxGeometry x="500" y="600" width="78" height="78" as="geometry"/>
        </mxCell>
<mxCell id="s3_docs_1015" value="S3 Documents\nIntelligent Tiering\n90d â†’ Glacier" style="shape=mxgraph.aws4.s3;labelPosition=bottom;verticalLabelPosition=top;align=center;verticalAlign=bottom;fillColor=#E8F5E8;strokeColor=#4CAF50;fontColor=#2E7D32;" vertex="1" parent="1">
          <mxGeometry x="750" y="150" width="78" height="78" as="geometry"/>
        </mxCell>
<mxCell id="redis_1016" value="ElastiCache Redis\n6 nodes (3 shards)\nMulti-AZ" style="shape=mxgraph.aws4.elasticache;labelPosition=bottom;verticalLabelPosition=top;align=center;verticalAlign=bottom;fillColor=#E8F5E8;strokeColor=#4CAF50;fontColor=#2E7D32;" vertex="1" parent="1">
          <mxGeometry x="700" y="600" width="78" height="78" as="geometry"/>
        </mxCell>
<mxCell id="conn_1017" style="edgeStyle=orthogonalEdgeStyle;rounded=0;orthogonalLoop=1;jettySize=auto;html=1;strokeColor=#1976D2;strokeWidth=2;fontColor=#1976D2;" edge="1" parent="1" source="cloudfront" target="waf">
          <mxGeometry relative="1" as="geometry">
            <mxPoint x="0" y="-10" as="offset"/>
            <Array as="points"/>
          </mxGeometry>
          <mxCell value="HTTPS Traffic" style="edgeLabel;html=1;align=center;verticalAlign=middle;resizable=0;points=[];fontSize=10;fontColor=#1976D2;" vertex="1" connectable="0" parent="conn_1017">
            <mxGeometry x="-0.1" y="1" relative="1" as="geometry">
              <mxPoint as="offset"/>
            </mxGeometry>
          </mxCell>
        </mxCell>
<mxCell id="conn_1018" style="edgeStyle=orthogonalEdgeStyle;rounded=0;orthogonalLoop=1;jettySize=auto;html=1;strokeColor=#1976D2;strokeWidth=2;fontColor=#1976D2;" edge="1" parent="1" source="waf" target="api_gw">
          <mxGeometry relative="1" as="geometry">
            <mxPoint x="0" y="-10" as="offset"/>
            <Array as="points"/>
          </mxGeometry>
          <mxCell value="Filtered Requests" style="edgeLabel;html=1;align=center;verticalAlign=middle;resizable=0;points=[];fontSize=10;fontColor=#1976D2;" vertex="1" connectable="0" parent="conn_1018">
            <mxGeometry x="-0.1" y="1" relative="1" as="geometry">
              <mxPoint as="offset"/>
            </mxGeometry>
          </mxCell>
        </mxCell>
<mxCell id="conn_1019" style="edgeStyle=orthogonalEdgeStyle;rounded=0;orthogonalLoop=1;jettySize=auto;html=1;strokeColor=#4CAF50;strokeWidth=2;fontColor=#4CAF50;" edge="1" parent="1" source="api_gw" target="invoice">
          <mxGeometry relative="1" as="geometry">
            <mxPoint x="0" y="-10" as="offset"/>
            <Array as="points"/>
          </mxGeometry>
          <mxCell value="Route /invoices" style="edgeLabel;html=1;align=center;verticalAlign=middle;resizable=0;points=[];fontSize=10;fontColor=#4CAF50;" vertex="1" connectable="0" parent="conn_1019">
            <mxGeometry x="-0.1" y="1" relative="1" as="geometry">
              <mxPoint as="offset"/>
            </mxGeometry>
          </mxCell>
        </mxCell>
<mxCell id="conn_1020" style="edgeStyle=orthogonalEdgeStyle;rounded=0;orthogonalLoop=1;jettySize=auto;html=1;strokeColor=#4CAF50;strokeWidth=2;fontColor=#4CAF50;" edge="1" parent="1" source="api_gw" target="product">
          <mxGeometry relative="1" as="geometry">
            <mxPoint x="0" y="-10" as="offset"/>
            <Array as="points"/>
          </mxGeometry>
          <mxCell value="Route /products" style="edgeLabel;html=1;align=center;verticalAlign=middle;resizable=0;points=[];fontSize=10;fontColor=#4CAF50;" vertex="1" connectable="0" parent="conn_1020">
            <mxGeometry x="-0.1" y="1" relative="1" as="geometry">
              <mxPoint as="offset"/>
            </mxGeometry>
          </mxCell>
        </mxCell>
<mxCell id="conn_1021" style="edgeStyle=orthogonalEdgeStyle;rounded=0;orthogonalLoop=1;jettySize=auto;html=1;strokeColor=#4CAF50;strokeWidth=2;fontColor=#4CAF50;" edge="1" parent="1" source="api_gw" target="ocr">
          <mxGeometry relative="1" as="geometry">
            <mxPoint x="0" y="-10" as="offset"/>
            <Array as="points"/>
          </mxGeometry>
          <mxCell value="Route /ocr" style="edgeLabel;html=1;align=center;verticalAlign=middle;resizable=0;points=[];fontSize=10;fontColor=#4CAF50;" vertex="1" connectable="0" parent="conn_1021">
            <mxGeometry x="-0.1" y="1" relative="1" as="geometry">
              <mxPoint as="offset"/>
            </mxGeometry>
          </mxCell>
        </mxCell>
<mxCell id="conn_1022" style="edgeStyle=orthogonalEdgeStyle;rounded=0;orthogonalLoop=1;jettySize=auto;html=1;strokeColor=#4CAF50;strokeWidth=2;fontColor=#4CAF50;" edge="1" parent="1" source="api_gw" target="commission">
          <mxGeometry relative="1" as="geometry">
            <mxPoint x="0" y="-10" as="offset"/>
            <Array as="points"/>
          </mxGeometry>
          <mxCell value="Route /commissions" style="edgeLabel;html=1;align=center;verticalAlign=middle;resizable=0;points=[];fontSize=10;fontColor=#4CAF50;" vertex="1" connectable="0" parent="conn_1022">
            <mxGeometry x="-0.1" y="1" relative="1" as="geometry">
              <mxPoint as="offset"/>
            </mxGeometry>
          </mxCell>
        </mxCell>
<mxCell id="conn_1023" style="edgeStyle=orthogonalEdgeStyle;rounded=0;orthogonalLoop=1;jettySize=auto;html=1;strokeColor=#2196F3;strokeWidth=2;fontColor=#2196F3;" edge="1" parent="1" source="invoice" target="rds_primary">
          <mxGeometry relative="1" as="geometry">
            <mxPoint x="0" y="-10" as="offset"/>
            <Array as="points"/>
          </mxGeometry>
          <mxCell value="Write Operations" style="edgeLabel;html=1;align=center;verticalAlign=middle;resizable=0;points=[];fontSize=10;fontColor=#2196F3;" vertex="1" connectable="0" parent="conn_1023">
            <mxGeometry x="-0.1" y="1" relative="1" as="geometry">
              <mxPoint as="offset"/>
            </mxGeometry>
          </mxCell>
        </mxCell>
<mxCell id="conn_1024" style="edgeStyle=orthogonalEdgeStyle;rounded=0;orthogonalLoop=1;jettySize=auto;html=1;strokeColor=#2196F3;strokeWidth=2;fontColor=#2196F3;" edge="1" parent="1" source="product" target="rds_primary">
          <mxGeometry relative="1" as="geometry">
            <mxPoint x="0" y="-10" as="offset"/>
            <Array as="points"/>
          </mxGeometry>
          <mxCell value="Write Operations" style="edgeLabel;html=1;align=center;verticalAlign=middle;resizable=0;points=[];fontSize=10;fontColor=#2196F3;" vertex="1" connectable="0" parent="conn_1024">
            <mxGeometry x="-0.1" y="1" relative="1" as="geometry">
              <mxPoint as="offset"/>
            </mxGeometry>
          </mxCell>
        </mxCell>
<mxCell id="conn_1025" style="edgeStyle=orthogonalEdgeStyle;rounded=0;orthogonalLoop=1;jettySize=auto;html=1;strokeColor=#FF9800;strokeWidth=2;fontColor=#FF9800;" edge="1" parent="1" source="product" target="redis">
          <mxGeometry relative="1" as="geometry">
            <mxPoint x="0" y="-10" as="offset"/>
            <Array as="points"/>
          </mxGeometry>
          <mxCell value="Cache Lookup" style="edgeLabel;html=1;align=center;verticalAlign=middle;resizable=0;points=[];fontSize=10;fontColor=#FF9800;" vertex="1" connectable="0" parent="conn_1025">
            <mxGeometry x="-0.1" y="1" relative="1" as="geometry">
              <mxPoint as="offset"/>
            </mxGeometry>
          </mxCell>
        </mxCell>
<mxCell id="conn_1026" style="edgeStyle=orthogonalEdgeStyle;rounded=0;orthogonalLoop=1;jettySize=auto;html=1;strokeColor=#9C27B0;strokeWidth=2;fontColor=#9C27B0;" edge="1" parent="1" source="rds_primary" target="rds_replica">
          <mxGeometry relative="1" as="geometry">
            <mxPoint x="0" y="-10" as="offset"/>
            <Array as="points"/>
          </mxGeometry>
          <mxCell value="Replication" style="edgeLabel;html=1;align=center;verticalAlign=middle;resizable=0;points=[];fontSize=10;fontColor=#9C27B0;" vertex="1" connectable="0" parent="conn_1026">
            <mxGeometry x="-0.1" y="1" relative="1" as="geometry">
              <mxPoint as="offset"/>
            </mxGeometry>
          </mxCell>
        </mxCell>
      </root>
    </mxGraphModel>
  </diagram>
  <diagram name="Microservices Detailed" id="diagram_1">
    <mxGraphModel dx="2500" dy="1600" grid="1" gridSize="10" guides="1" tooltips="1" connect="1" arrows="1" fold="1" page="1" pageScale="1" pageWidth="1400" pageHeight="1000">
      <root>
        <mxCell id="0"/>
        <mxCell id="1" parent="0"/>
        <mxCell id="title_1027" value="BMC MICROSERVICES - DETAILED ARCHITECTURE" style="text;html=1;strokeColor=none;fillColor=none;align=center;verticalAlign=middle;whiteSpace=wrap;rounded=0;fontSize=18;fontStyle=1;fontColor=#1976D2;" vertex="1" parent="1">
          <mxGeometry x="400" y="20" width="600" height="30" as="geometry"/>
        </mxCell>
<mxCell id="api_layer_1028" value="API Management Layer" style="fillColor=#E3F2FD;strokeColor=#1976D2;dashed=1;verticalAlign=top;fontStyle=1;fontSize=14;fontColor=#1976D2;" vertex="1" parent="1">
          <mxGeometry x="50" y="80" width="1200" height="150" as="geometry"/>
        </mxCell>
<mxCell id="api_gateway_1029" value="API Gateway\nThrottling: 10K req/s\nCustom authorizers" style="shape=mxgraph.aws4.api_gateway;labelPosition=bottom;verticalLabelPosition=top;align=center;verticalAlign=bottom;fillColor=#E8F5E8;strokeColor=#4CAF50;fontColor=#2E7D32;" vertex="1" parent="1">
          <mxGeometry x="150" y="120" width="78" height="78" as="geometry"/>
        </mxCell>
<mxCell id="cognito_1030" value="Cognito User Pool\nJWT validation\nMFA: TOTP + SMS" style="shape=mxgraph.aws4.cognito;labelPosition=bottom;verticalLabelPosition=top;align=center;verticalAlign=bottom;fillColor=#E8F5E8;strokeColor=#4CAF50;fontColor=#2E7D32;" vertex="1" parent="1">
          <mxGeometry x="400" y="120" width="78" height="78" as="geometry"/>
        </mxCell>
<mxCell id="alb_1031" value="Application LB\nSticky sessions\nHealth checks" style="shape=mxgraph.aws4.application_load_balancer;labelPosition=bottom;verticalLabelPosition=top;align=center;verticalAlign=bottom;fillColor=#E8F5E8;strokeColor=#4CAF50;fontColor=#2E7D32;" vertex="1" parent="1">
          <mxGeometry x="650" y="120" width="78" height="78" as="geometry"/>
        </mxCell>
<mxCell id="microservices_1032" value="ECS Fargate Cluster - Auto Scaling" style="fillColor=#E8F5E8;strokeColor=#4CAF50;dashed=1;verticalAlign=top;fontStyle=1;fontSize=14;fontColor=#4CAF50;" vertex="1" parent="1">
          <mxGeometry x="50" y="280" width="1200" height="200" as="geometry"/>
        </mxCell>
<mxCell id="invoice_pod_1033" value="Invoice Service Pod" style="fillColor=#FFF3E0;strokeColor=#FF9800;dashed=1;verticalAlign=top;fontStyle=1;fontSize=14;fontColor=#FF9800;" vertex="1" parent="1">
          <mxGeometry x="100" y="320" width="200" height="120" as="geometry"/>
        </mxCell>
<mxCell id="invoice_task1_1034" value="Task 1\n2vCPU/4GB\nPort: 8000" style="shape=mxgraph.aws4.fargate;labelPosition=bottom;verticalLabelPosition=top;align=center;verticalAlign=bottom;fillColor=#E8F5E8;strokeColor=#4CAF50;fontColor=#2E7D32;" vertex="1" parent="1">
          <mxGeometry x="120" y="350" width="78" height="78" as="geometry"/>
        </mxCell>
<mxCell id="invoice_task2_1035" value="Task 2\n2vCPU/4GB\nPort: 8000" style="shape=mxgraph.aws4.fargate;labelPosition=bottom;verticalLabelPosition=top;align=center;verticalAlign=bottom;fillColor=#E8F5E8;strokeColor=#4CAF50;fontColor=#2E7D32;" vertex="1" parent="1">
          <mxGeometry x="200" y="350" width="78" height="78" as="geometry"/>
        </mxCell>
<mxCell id="product_pod_1036" value="Product Service Pod - 60M Records" style="fillColor=#E3F2FD;strokeColor=#2196F3;dashed=1;verticalAlign=top;fontStyle=1;fontSize=14;fontColor=#2196F3;" vertex="1" parent="1">
          <mxGeometry x="350" y="320" width="200" height="120" as="geometry"/>
        </mxCell>
<mxCell id="product_task1_1037" value="Task 1\n4vCPU/8GB\n<500ms lookup" style="shape=mxgraph.aws4.fargate;labelPosition=bottom;verticalLabelPosition=top;align=center;verticalAlign=bottom;fillColor=#E8F5E8;strokeColor=#4CAF50;fontColor=#2E7D32;" vertex="1" parent="1">
          <mxGeometry x="370" y="350" width="78" height="78" as="geometry"/>
        </mxCell>
<mxCell id="product_task2_1038" value="Task 2\n4vCPU/8GB\n<500ms lookup" style="shape=mxgraph.aws4.fargate;labelPosition=bottom;verticalLabelPosition=top;align=center;verticalAlign=bottom;fillColor=#E8F5E8;strokeColor=#4CAF50;fontColor=#2E7D32;" vertex="1" parent="1">
          <mxGeometry x="450" y="350" width="78" height="78" as="geometry"/>
        </mxCell>
<mxCell id="ocr_pod_1039" value="OCR Service Pod" style="fillColor=#FCE4EC;strokeColor=#E91E63;dashed=1;verticalAlign=top;fontStyle=1;fontSize=14;fontColor=#E91E63;" vertex="1" parent="1">
          <mxGeometry x="600" y="320" width="200" height="120" as="geometry"/>
        </mxCell>
<mxCell id="ocr_task1_1040" value="Task 1\n4vCPU/8GB\nTextract" style="shape=mxgraph.aws4.fargate;labelPosition=bottom;verticalLabelPosition=top;align=center;verticalAlign=bottom;fillColor=#E8F5E8;strokeColor=#4CAF50;fontColor=#2E7D32;" vertex="1" parent="1">
          <mxGeometry x="620" y="350" width="78" height="78" as="geometry"/>
        </mxCell>
<mxCell id="ocr_task2_1041" value="Task 2\n4vCPU/8GB\nTextract" style="shape=mxgraph.aws4.fargate;labelPosition=bottom;verticalLabelPosition=top;align=center;verticalAlign=bottom;fillColor=#E8F5E8;strokeColor=#4CAF50;fontColor=#2E7D32;" vertex="1" parent="1">
          <mxGeometry x="700" y="350" width="78" height="78" as="geometry"/>
        </mxCell>
<mxCell id="commission_pod_1042" value="Commission Service Pod" style="fillColor=#F3E5F5;strokeColor=#9C27B0;dashed=1;verticalAlign=top;fontStyle=1;fontSize=14;fontColor=#9C27B0;" vertex="1" parent="1">
          <mxGeometry x="850" y="320" width="200" height="120" as="geometry"/>
        </mxCell>
<mxCell id="commission_task1_1043" value="Task 1\n2vCPU/4GB\nDIAN API" style="shape=mxgraph.aws4.fargate;labelPosition=bottom;verticalLabelPosition=top;align=center;verticalAlign=bottom;fillColor=#E8F5E8;strokeColor=#4CAF50;fontColor=#2E7D32;" vertex="1" parent="1">
          <mxGeometry x="870" y="350" width="78" height="78" as="geometry"/>
        </mxCell>
<mxCell id="commission_task2_1044" value="Task 2\n2vCPU/4GB\nDIAN API" style="shape=mxgraph.aws4.fargate;labelPosition=bottom;verticalLabelPosition=top;align=center;verticalAlign=bottom;fillColor=#E8F5E8;strokeColor=#4CAF50;fontColor=#2E7D32;" vertex="1" parent="1">
          <mxGeometry x="950" y="350" width="78" height="78" as="geometry"/>
        </mxCell>
<mxCell id="data_services_1045" value="Data Services - Multi-AZ" style="fillColor=#F5F5F5;strokeColor=#666666;dashed=1;verticalAlign=top;fontStyle=1;fontSize=14;fontColor=#666666;" vertex="1" parent="1">
          <mxGeometry x="50" y="520" width="1200" height="200" as="geometry"/>
        </mxCell>
<mxCell id="rds_primary_1046" value="RDS PostgreSQL\ndb.r6g.2xlarge\nMulti-AZ\n35-day backup\nPerformance Insights" style="shape=mxgraph.aws4.rds;labelPosition=bottom;verticalLabelPosition=top;align=center;verticalAlign=bottom;fillColor=#E8F5E8;strokeColor=#4CAF50;fontColor=#2E7D32;" vertex="1" parent="1">
          <mxGeometry x="150" y="580" width="78" height="78" as="geometry"/>
        </mxCell>
<mxCell id="redis_cluster_1047" value="ElastiCache Redis\n6 nodes (3 shards)\nCluster mode\n99.9% availability" style="shape=mxgraph.aws4.elasticache;labelPosition=bottom;verticalLabelPosition=top;align=center;verticalAlign=bottom;fillColor=#E8F5E8;strokeColor=#4CAF50;fontColor=#2E7D32;" vertex="1" parent="1">
          <mxGeometry x="400" y="580" width="78" height="78" as="geometry"/>
        </mxCell>
<mxCell id="s3_docs_1048" value="S3 Documents\nIntelligent Tiering\n90d â†’ Glacier\nVersioning enabled" style="shape=mxgraph.aws4.s3;labelPosition=bottom;verticalLabelPosition=top;align=center;verticalAlign=bottom;fillColor=#E8F5E8;strokeColor=#4CAF50;fontColor=#2E7D32;" vertex="1" parent="1">
          <mxGeometry x="650" y="580" width="78" height="78" as="geometry"/>
        </mxCell>
<mxCell id="textract_1049" value="Amazon Textract\n>95% accuracy\nForms + Tables\nHandwriting" style="shape=mxgraph.aws4.textract;labelPosition=bottom;verticalLabelPosition=top;align=center;verticalAlign=bottom;fillColor=#E8F5E8;strokeColor=#4CAF50;fontColor=#2E7D32;" vertex="1" parent="1">
          <mxGeometry x="900" y="580" width="78" height="78" as="geometry"/>
        </mxCell>
<mxCell id="conn_1050" style="edgeStyle=orthogonalEdgeStyle;rounded=0;orthogonalLoop=1;jettySize=auto;html=1;strokeColor=#1976D2;strokeWidth=2;fontColor=#1976D2;" edge="1" parent="1" source="api_gateway" target="cognito">
          <mxGeometry relative="1" as="geometry">
            <mxPoint x="0" y="-10" as="offset"/>
            <Array as="points"/>
          </mxGeometry>
          <mxCell value="Auth" style="edgeLabel;html=1;align=center;verticalAlign=middle;resizable=0;points=[];fontSize=10;fontColor=#1976D2;" vertex="1" connectable="0" parent="conn_1050">
            <mxGeometry x="-0.1" y="1" relative="1" as="geometry">
              <mxPoint as="offset"/>
            </mxGeometry>
          </mxCell>
        </mxCell>
<mxCell id="conn_1051" style="edgeStyle=orthogonalEdgeStyle;rounded=0;orthogonalLoop=1;jettySize=auto;html=1;strokeColor=#1976D2;strokeWidth=2;fontColor=#1976D2;" edge="1" parent="1" source="cognito" target="alb">
          <mxGeometry relative="1" as="geometry">
            <mxPoint x="0" y="-10" as="offset"/>
            <Array as="points"/>
          </mxGeometry>
          <mxCell value="Authorized" style="edgeLabel;html=1;align=center;verticalAlign=middle;resizable=0;points=[];fontSize=10;fontColor=#1976D2;" vertex="1" connectable="0" parent="conn_1051">
            <mxGeometry x="-0.1" y="1" relative="1" as="geometry">
              <mxPoint as="offset"/>
            </mxGeometry>
          </mxCell>
        </mxCell>
<mxCell id="conn_1052" style="edgeStyle=orthogonalEdgeStyle;rounded=0;orthogonalLoop=1;jettySize=auto;html=1;strokeColor=#4CAF50;strokeWidth=2;fontColor=#4CAF50;" edge="1" parent="1" source="alb" target="invoice_task1">
          <mxGeometry relative="1" as="geometry">
            <mxPoint x="0" y="-10" as="offset"/>
            <Array as="points"/>
          </mxGeometry>
          <mxCell value="Route" style="edgeLabel;html=1;align=center;verticalAlign=middle;resizable=0;points=[];fontSize=10;fontColor=#4CAF50;" vertex="1" connectable="0" parent="conn_1052">
            <mxGeometry x="-0.1" y="1" relative="1" as="geometry">
              <mxPoint as="offset"/>
            </mxGeometry>
          </mxCell>
        </mxCell>
<mxCell id="conn_1053" style="edgeStyle=orthogonalEdgeStyle;rounded=0;orthogonalLoop=1;jettySize=auto;html=1;strokeColor=#4CAF50;strokeWidth=2;fontColor=#4CAF50;" edge="1" parent="1" source="alb" target="product_task1">
          <mxGeometry relative="1" as="geometry">
            <mxPoint x="0" y="-10" as="offset"/>
            <Array as="points"/>
          </mxGeometry>
          <mxCell value="Route" style="edgeLabel;html=1;align=center;verticalAlign=middle;resizable=0;points=[];fontSize=10;fontColor=#4CAF50;" vertex="1" connectable="0" parent="conn_1053">
            <mxGeometry x="-0.1" y="1" relative="1" as="geometry">
              <mxPoint as="offset"/>
            </mxGeometry>
          </mxCell>
        </mxCell>
<mxCell id="conn_1054" style="edgeStyle=orthogonalEdgeStyle;rounded=0;orthogonalLoop=1;jettySize=auto;html=1;strokeColor=#4CAF50;strokeWidth=2;fontColor=#4CAF50;" edge="1" parent="1" source="alb" target="ocr_task1">
          <mxGeometry relative="1" as="geometry">
            <mxPoint x="0" y="-10" as="offset"/>
            <Array as="points"/>
          </mxGeometry>
          <mxCell value="Route" style="edgeLabel;html=1;align=center;verticalAlign=middle;resizable=0;points=[];fontSize=10;fontColor=#4CAF50;" vertex="1" connectable="0" parent="conn_1054">
            <mxGeometry x="-0.1" y="1" relative="1" as="geometry">
              <mxPoint as="offset"/>
            </mxGeometry>
          </mxCell>
        </mxCell>
<mxCell id="conn_1055" style="edgeStyle=orthogonalEdgeStyle;rounded=0;orthogonalLoop=1;jettySize=auto;html=1;strokeColor=#4CAF50;strokeWidth=2;fontColor=#4CAF50;" edge="1" parent="1" source="alb" target="commission_task1">
          <mxGeometry relative="1" as="geometry">
            <mxPoint x="0" y="-10" as="offset"/>
            <Array as="points"/>
          </mxGeometry>
          <mxCell value="Route" style="edgeLabel;html=1;align=center;verticalAlign=middle;resizable=0;points=[];fontSize=10;fontColor=#4CAF50;" vertex="1" connectable="0" parent="conn_1055">
            <mxGeometry x="-0.1" y="1" relative="1" as="geometry">
              <mxPoint as="offset"/>
            </mxGeometry>
          </mxCell>
        </mxCell>
<mxCell id="conn_1056" style="edgeStyle=orthogonalEdgeStyle;rounded=0;orthogonalLoop=1;jettySize=auto;html=1;strokeColor=#2196F3;strokeWidth=2;fontColor=#2196F3;" edge="1" parent="1" source="invoice_task1" target="rds_primary">
          <mxGeometry relative="1" as="geometry">
            <mxPoint x="0" y="-10" as="offset"/>
            <Array as="points"/>
          </mxGeometry>
          <mxCell value="Write" style="edgeLabel;html=1;align=center;verticalAlign=middle;resizable=0;points=[];fontSize=10;fontColor=#2196F3;" vertex="1" connectable="0" parent="conn_1056">
            <mxGeometry x="-0.1" y="1" relative="1" as="geometry">
              <mxPoint as="offset"/>
            </mxGeometry>
          </mxCell>
        </mxCell>
<mxCell id="conn_1057" style="edgeStyle=orthogonalEdgeStyle;rounded=0;orthogonalLoop=1;jettySize=auto;html=1;strokeColor=#FF9800;strokeWidth=2;fontColor=#FF9800;" edge="1" parent="1" source="product_task1" target="redis_cluster">
          <mxGeometry relative="1" as="geometry">
            <mxPoint x="0" y="-10" as="offset"/>
            <Array as="points"/>
          </mxGeometry>
          <mxCell value="Cache" style="edgeLabel;html=1;align=center;verticalAlign=middle;resizable=0;points=[];fontSize=10;fontColor=#FF9800;" vertex="1" connectable="0" parent="conn_1057">
            <mxGeometry x="-0.1" y="1" relative="1" as="geometry">
              <mxPoint as="offset"/>
            </mxGeometry>
          </mxCell>
        </mxCell>
<mxCell id="conn_1058" style="edgeStyle=orthogonalEdgeStyle;rounded=0;orthogonalLoop=1;jettySize=auto;html=1;strokeColor=#2196F3;strokeWidth=2;fontColor=#2196F3;" edge="1" parent="1" source="product_task1" target="rds_primary">
          <mxGeometry relative="1" as="geometry">
            <mxPoint x="0" y="-10" as="offset"/>
            <Array as="points"/>
          </mxGeometry>
          <mxCell value="60M lookup" style="edgeLabel;html=1;align=center;verticalAlign=middle;resizable=0;points=[];fontSize=10;fontColor=#2196F3;" vertex="1" connectable="0" parent="conn_1058">
            <mxGeometry x="-0.1" y="1" relative="1" as="geometry">
              <mxPoint as="offset"/>
            </mxGeometry>
          </mxCell>
        </mxCell>
<mxCell id="conn_1059" style="edgeStyle=orthogonalEdgeStyle;rounded=0;orthogonalLoop=1;jettySize=auto;html=1;strokeColor=#E91E63;strokeWidth=2;fontColor=#E91E63;" edge="1" parent="1" source="ocr_task1" target="textract">
          <mxGeometry relative="1" as="geometry">
            <mxPoint x="0" y="-10" as="offset"/>
            <Array as="points"/>
          </mxGeometry>
          <mxCell value="OCR >95%" style="edgeLabel;html=1;align=center;verticalAlign=middle;resizable=0;points=[];fontSize=10;fontColor=#E91E63;" vertex="1" connectable="0" parent="conn_1059">
            <mxGeometry x="-0.1" y="1" relative="1" as="geometry">
              <mxPoint as="offset"/>
            </mxGeometry>
          </mxCell>
        </mxCell>
<mxCell id="conn_1060" style="edgeStyle=orthogonalEdgeStyle;rounded=0;orthogonalLoop=1;jettySize=auto;html=1;strokeColor=#795548;strokeWidth=2;fontColor=#795548;" edge="1" parent="1" source="ocr_task1" target="s3_docs">
          <mxGeometry relative="1" as="geometry">
            <mxPoint x="0" y="-10" as="offset"/>
            <Array as="points"/>
          </mxGeometry>
          <mxCell value="Documents" style="edgeLabel;html=1;align=center;verticalAlign=middle;resizable=0;points=[];fontSize=10;fontColor=#795548;" vertex="1" connectable="0" parent="conn_1060">
            <mxGeometry x="-0.1" y="1" relative="1" as="geometry">
              <mxPoint as="offset"/>
            </mxGeometry>
          </mxCell>
        </mxCell>
<mxCell id="conn_1061" style="edgeStyle=orthogonalEdgeStyle;rounded=0;orthogonalLoop=1;jettySize=auto;html=1;strokeColor=#9C27B0;strokeWidth=2;fontColor=#9C27B0;" edge="1" parent="1" source="commission_task1" target="rds_primary">
          <mxGeometry relative="1" as="geometry">
            <mxPoint x="0" y="-10" as="offset"/>
            <Array as="points"/>
          </mxGeometry>
          <mxCell value="Compliance" style="edgeLabel;html=1;align=center;verticalAlign=middle;resizable=0;points=[];fontSize=10;fontColor=#9C27B0;" vertex="1" connectable="0" parent="conn_1061">
            <mxGeometry x="-0.1" y="1" relative="1" as="geometry">
              <mxPoint as="offset"/>
            </mxGeometry>
          </mxCell>
        </mxCell>
      </root>
    </mxGraphModel>
  </diagram>
  <diagram name="Security Architecture" id="diagram_2">
    <mxGraphModel dx="2500" dy="1600" grid="1" gridSize="10" guides="1" tooltips="1" connect="1" arrows="1" fold="1" page="1" pageScale="1" pageWidth="1400" pageHeight="1000">
      <root>
        <mxCell id="0"/>
        <mxCell id="1" parent="0"/>
        <mxCell id="title_1062" value="BMC SECURITY ARCHITECTURE - ENTERPRISE GRADE" style="text;html=1;strokeColor=none;fillColor=none;align=center;verticalAlign=middle;whiteSpace=wrap;rounded=0;fontSize=18;fontStyle=1;fontColor=#1976D2;" vertex="1" parent="1">
          <mxGeometry x="400" y="20" width="600" height="30" as="geometry"/>
        </mxCell>
<mxCell id="internet_1063" value="Internet\nGlobal Access" style="shape=mxgraph.aws4.internet;labelPosition=bottom;verticalLabelPosition=top;align=center;verticalAlign=bottom;fillColor=#E8F5E8;strokeColor=#4CAF50;fontColor=#2E7D32;" vertex="1" parent="1">
          <mxGeometry x="100" y="100" width="78" height="78" as="geometry"/>
        </mxCell>
<mxCell id="users_1064" value="BMC Users\n10K concurrent\nMulti-device" style="shape=mxgraph.aws4.users;labelPosition=bottom;verticalLabelPosition=top;align=center;verticalAlign=bottom;fillColor=#E8F5E8;strokeColor=#4CAF50;fontColor=#2E7D32;" vertex="1" parent="1">
          <mxGeometry x="300" y="100" width="78" height="78" as="geometry"/>
        </mxCell>
<mxCell id="edge_security_1065" value="Edge Security Layer" style="fillColor=#FFEBEE;strokeColor=#D32F2F;dashed=1;verticalAlign=top;fontStyle=1;fontSize=14;fontColor=#D32F2F;" vertex="1" parent="1">
          <mxGeometry x="50" y="200" width="1200" height="150" as="geometry"/>
        </mxCell>
<mxCell id="cloudfront_1066" value="CloudFront\nSSL/TLS 1.3\nGlobal edge\nGzip compression" style="shape=mxgraph.aws4.cloudfront;labelPosition=bottom;verticalLabelPosition=top;align=center;verticalAlign=bottom;fillColor=#E8F5E8;strokeColor=#4CAF50;fontColor=#2E7D32;" vertex="1" parent="1">
          <mxGeometry x="150" y="240" width="78" height="78" as="geometry"/>
        </mxCell>
<mxCell id="waf_1067" value="AWS WAF\nDDoS protection\nGeo blocking\nSQL injection\nRate limiting: 2K/s" style="shape=mxgraph.aws4.waf;labelPosition=bottom;verticalLabelPosition=top;align=center;verticalAlign=bottom;fillColor=#E8F5E8;strokeColor=#4CAF50;fontColor=#2E7D32;" vertex="1" parent="1">
          <mxGeometry x="350" y="240" width="78" height="78" as="geometry"/>
        </mxCell>
<mxCell id="shield_1068" value="AWS Shield\nAdvanced DDoS\n24/7 DRT support" style="shape=mxgraph.aws4.shield;labelPosition=bottom;verticalLabelPosition=top;align=center;verticalAlign=bottom;fillColor=#E8F5E8;strokeColor=#4CAF50;fontColor=#2E7D32;" vertex="1" parent="1">
          <mxGeometry x="550" y="240" width="78" height="78" as="geometry"/>
        </mxCell>
<mxCell id="iam_layer_1069" value="Identity & Access Management" style="fillColor=#F3E5F5;strokeColor=#7B1FA2;dashed=1;verticalAlign=top;fontStyle=1;fontSize=14;fontColor=#7B1FA2;" vertex="1" parent="1">
          <mxGeometry x="50" y="400" width="1200" height="150" as="geometry"/>
        </mxCell>
<mxCell id="cognito_1070" value="Cognito User Pool\nMFA: TOTP + SMS\nPassword policy\nSocial login" style="shape=mxgraph.aws4.cognito;labelPosition=bottom;verticalLabelPosition=top;align=center;verticalAlign=bottom;fillColor=#E8F5E8;strokeColor=#4CAF50;fontColor=#2E7D32;" vertex="1" parent="1">
          <mxGeometry x="150" y="440" width="78" height="78" as="geometry"/>
        </mxCell>
<mxCell id="api_gateway_1071" value="API Gateway\nJWT validation\nAPI keys\nThrottling\nCustom authorizers" style="shape=mxgraph.aws4.api_gateway;labelPosition=bottom;verticalLabelPosition=top;align=center;verticalAlign=bottom;fillColor=#E8F5E8;strokeColor=#4CAF50;fontColor=#2E7D32;" vertex="1" parent="1">
          <mxGeometry x="350" y="440" width="78" height="78" as="geometry"/>
        </mxCell>
<mxCell id="iam_1072" value="IAM Roles\nLeast privilege\nAssumeRole\nPolicy conditions" style="shape=mxgraph.aws4.iam;labelPosition=bottom;verticalLabelPosition=top;align=center;verticalAlign=bottom;fillColor=#E8F5E8;strokeColor=#4CAF50;fontColor=#2E7D32;" vertex="1" parent="1">
          <mxGeometry x="550" y="440" width="78" height="78" as="geometry"/>
        </mxCell>
<mxCell id="app_security_1073" value="Application Security" style="fillColor=#E8EAF6;strokeColor=#3F51B5;dashed=1;verticalAlign=top;fontStyle=1;fontSize=14;fontColor=#3F51B5;" vertex="1" parent="1">
          <mxGeometry x="50" y="600" width="1200" height="150" as="geometry"/>
        </mxCell>
<mxCell id="fargate_1074" value="ECS Fargate\nTask Role IAM\nSecrets Manager\nVPC Endpoints\nPrivate subnets" style="shape=mxgraph.aws4.fargate;labelPosition=bottom;verticalLabelPosition=top;align=center;verticalAlign=bottom;fillColor=#E8F5E8;strokeColor=#4CAF50;fontColor=#2E7D32;" vertex="1" parent="1">
          <mxGeometry x="150" y="640" width="78" height="78" as="geometry"/>
        </mxCell>
<mxCell id="secrets_1075" value="Secrets Manager\nDB credentials\nAPI keys\nAuto rotation\nEncryption" style="shape=mxgraph.aws4.secrets_manager;labelPosition=bottom;verticalLabelPosition=top;align=center;verticalAlign=bottom;fillColor=#E8F5E8;strokeColor=#4CAF50;fontColor=#2E7D32;" vertex="1" parent="1">
          <mxGeometry x="350" y="640" width="78" height="78" as="geometry"/>
        </mxCell>
<mxCell id="parameter_store_1076" value="Parameter Store\nConfig values\nSecure strings\nHierarchy" style="shape=mxgraph.aws4.systems_manager_parameter_store;labelPosition=bottom;verticalLabelPosition=top;align=center;verticalAlign=bottom;fillColor=#E8F5E8;strokeColor=#4CAF50;fontColor=#2E7D32;" vertex="1" parent="1">
          <mxGeometry x="550" y="640" width="78" height="78" as="geometry"/>
        </mxCell>
<mxCell id="data_security_1077" value="Data Security" style="fillColor=#E0F2F1;strokeColor=#00695C;dashed=1;verticalAlign=top;fontStyle=1;fontSize=14;fontColor=#00695C;" vertex="1" parent="1">
          <mxGeometry x="50" y="800" width="1200" height="150" as="geometry"/>
        </mxCell>
<mxCell id="kms_1078" value="KMS Encryption\nCustomer managed keys\nAuto rotation\nCloudTrail audit\nGrant permissions" style="shape=mxgraph.aws4.kms;labelPosition=bottom;verticalLabelPosition=top;align=center;verticalAlign=bottom;fillColor=#E8F5E8;strokeColor=#4CAF50;fontColor=#2E7D32;" vertex="1" parent="1">
          <mxGeometry x="150" y="840" width="78" height="78" as="geometry"/>
        </mxCell>
<mxCell id="rds_1079" value="RDS Encrypted\nAt rest + in transit\nSSL certificates\nTDE enabled" style="shape=mxgraph.aws4.rds;labelPosition=bottom;verticalLabelPosition=top;align=center;verticalAlign=bottom;fillColor=#E8F5E8;strokeColor=#4CAF50;fontColor=#2E7D32;" vertex="1" parent="1">
          <mxGeometry x="350" y="840" width="78" height="78" as="geometry"/>
        </mxCell>
<mxCell id="s3_1080" value="S3 Encrypted\nBucket policies\nAccess logging\nMFA delete\nVersioning" style="shape=mxgraph.aws4.s3;labelPosition=bottom;verticalLabelPosition=top;align=center;verticalAlign=bottom;fillColor=#E8F5E8;strokeColor=#4CAF50;fontColor=#2E7D32;" vertex="1" parent="1">
          <mxGeometry x="550" y="840" width="78" height="78" as="geometry"/>
        </mxCell>
<mxCell id="network_security_1081" value="Network Security" style="fillColor=#FFF3E0;strokeColor=#E65100;dashed=1;verticalAlign=top;fontStyle=1;fontSize=14;fontColor=#E65100;" vertex="1" parent="1">
          <mxGeometry x="750" y="600" width="400" height="350" as="geometry"/>
        </mxCell>
<mxCell id="vpc_1082" value="VPC\nPrivate subnets\nNACLs\nFlow logs" style="shape=mxgraph.aws4.vpc;labelPosition=bottom;verticalLabelPosition=top;align=center;verticalAlign=bottom;fillColor=#E8F5E8;strokeColor=#4CAF50;fontColor=#2E7D32;" vertex="1" parent="1">
          <mxGeometry x="800" y="640" width="78" height="78" as="geometry"/>
        </mxCell>
<mxCell id="security_groups_1083" value="Security Groups\nLeast privilege\nPort restrictions\nSource-based rules" style="shape=mxgraph.aws4.security_group;labelPosition=bottom;verticalLabelPosition=top;align=center;verticalAlign=bottom;fillColor=#E8F5E8;strokeColor=#4CAF50;fontColor=#2E7D32;" vertex="1" parent="1">
          <mxGeometry x="800" y="740" width="78" height="78" as="geometry"/>
        </mxCell>
<mxCell id="nat_gateway_1084" value="NAT Gateway\nOutbound internet\nStatic IP\nHigh availability" style="shape=mxgraph.aws4.nat_gateway;labelPosition=bottom;verticalLabelPosition=top;align=center;verticalAlign=bottom;fillColor=#E8F5E8;strokeColor=#4CAF50;fontColor=#2E7D32;" vertex="1" parent="1">
          <mxGeometry x="800" y="840" width="78" height="78" as="geometry"/>
        </mxCell>
<mxCell id="cloudwatch_1085" value="CloudWatch\nSecurity logs\nAnomaly detection\nCustom metrics\nAlarms" style="shape=mxgraph.aws4.cloudwatch;labelPosition=bottom;verticalLabelPosition=top;align=center;verticalAlign=bottom;fillColor=#E8F5E8;strokeColor=#4CAF50;fontColor=#2E7D32;" vertex="1" parent="1">
          <mxGeometry x="950" y="240" width="78" height="78" as="geometry"/>
        </mxCell>
<mxCell id="cloudtrail_1086" value="CloudTrail\nAPI audit logs\nCompliance reports\nData events\nInsight events" style="shape=mxgraph.aws4.cloudtrail;labelPosition=bottom;verticalLabelPosition=top;align=center;verticalAlign=bottom;fillColor=#E8F5E8;strokeColor=#4CAF50;fontColor=#2E7D32;" vertex="1" parent="1">
          <mxGeometry x="950" y="440" width="78" height="78" as="geometry"/>
        </mxCell>
<mxCell id="conn_1087" style="edgeStyle=orthogonalEdgeStyle;rounded=0;orthogonalLoop=1;jettySize=auto;html=1;strokeColor=#D32F2F;strokeWidth=2;fontColor=#D32F2F;" edge="1" parent="1" source="users" target="cloudfront">
          <mxGeometry relative="1" as="geometry">
            <mxPoint x="0" y="-10" as="offset"/>
            <Array as="points"/>
          </mxGeometry>
          <mxCell value="HTTPS Only" style="edgeLabel;html=1;align=center;verticalAlign=middle;resizable=0;points=[];fontSize=10;fontColor=#D32F2F;" vertex="1" connectable="0" parent="conn_1087">
            <mxGeometry x="-0.1" y="1" relative="1" as="geometry">
              <mxPoint as="offset"/>
            </mxGeometry>
          </mxCell>
        </mxCell>
<mxCell id="conn_1088" style="edgeStyle=orthogonalEdgeStyle;rounded=0;orthogonalLoop=1;jettySize=auto;html=1;strokeColor=#D32F2F;strokeWidth=2;fontColor=#D32F2F;" edge="1" parent="1" source="cloudfront" target="waf">
          <mxGeometry relative="1" as="geometry">
            <mxPoint x="0" y="-10" as="offset"/>
            <Array as="points"/>
          </mxGeometry>
          <mxCell value="Filter Traffic" style="edgeLabel;html=1;align=center;verticalAlign=middle;resizable=0;points=[];fontSize=10;fontColor=#D32F2F;" vertex="1" connectable="0" parent="conn_1088">
            <mxGeometry x="-0.1" y="1" relative="1" as="geometry">
              <mxPoint as="offset"/>
            </mxGeometry>
          </mxCell>
        </mxCell>
<mxCell id="conn_1089" style="edgeStyle=orthogonalEdgeStyle;rounded=0;orthogonalLoop=1;jettySize=auto;html=1;strokeColor=#D32F2F;strokeWidth=2;fontColor=#D32F2F;" edge="1" parent="1" source="waf" target="shield">
          <mxGeometry relative="1" as="geometry">
            <mxPoint x="0" y="-10" as="offset"/>
            <Array as="points"/>
          </mxGeometry>
          <mxCell value="DDoS Protection" style="edgeLabel;html=1;align=center;verticalAlign=middle;resizable=0;points=[];fontSize=10;fontColor=#D32F2F;" vertex="1" connectable="0" parent="conn_1089">
            <mxGeometry x="-0.1" y="1" relative="1" as="geometry">
              <mxPoint as="offset"/>
            </mxGeometry>
          </mxCell>
        </mxCell>
<mxCell id="conn_1090" style="edgeStyle=orthogonalEdgeStyle;rounded=0;orthogonalLoop=1;jettySize=auto;html=1;strokeColor=#7B1FA2;strokeWidth=2;fontColor=#7B1FA2;" edge="1" parent="1" source="shield" target="api_gateway">
          <mxGeometry relative="1" as="geometry">
            <mxPoint x="0" y="-10" as="offset"/>
            <Array as="points"/>
          </mxGeometry>
          <mxCell value="Clean Traffic" style="edgeLabel;html=1;align=center;verticalAlign=middle;resizable=0;points=[];fontSize=10;fontColor=#7B1FA2;" vertex="1" connectable="0" parent="conn_1090">
            <mxGeometry x="-0.1" y="1" relative="1" as="geometry">
              <mxPoint as="offset"/>
            </mxGeometry>
          </mxCell>
        </mxCell>
<mxCell id="conn_1091" style="edgeStyle=orthogonalEdgeStyle;rounded=0;orthogonalLoop=1;jettySize=auto;html=1;strokeColor=#7B1FA2;strokeWidth=2;fontColor=#7B1FA2;" edge="1" parent="1" source="api_gateway" target="cognito">
          <mxGeometry relative="1" as="geometry">
            <mxPoint x="0" y="-10" as="offset"/>
            <Array as="points"/>
          </mxGeometry>
          <mxCell value="Authenticate" style="edgeLabel;html=1;align=center;verticalAlign=middle;resizable=0;points=[];fontSize=10;fontColor=#7B1FA2;" vertex="1" connectable="0" parent="conn_1091">
            <mxGeometry x="-0.1" y="1" relative="1" as="geometry">
              <mxPoint as="offset"/>
            </mxGeometry>
          </mxCell>
        </mxCell>
<mxCell id="conn_1092" style="edgeStyle=orthogonalEdgeStyle;rounded=0;orthogonalLoop=1;jettySize=auto;html=1;strokeColor=#7B1FA2;strokeWidth=2;fontColor=#7B1FA2;" edge="1" parent="1" source="cognito" target="iam">
          <mxGeometry relative="1" as="geometry">
            <mxPoint x="0" y="-10" as="offset"/>
            <Array as="points"/>
          </mxGeometry>
          <mxCell value="Authorize" style="edgeLabel;html=1;align=center;verticalAlign=middle;resizable=0;points=[];fontSize=10;fontColor=#7B1FA2;" vertex="1" connectable="0" parent="conn_1092">
            <mxGeometry x="-0.1" y="1" relative="1" as="geometry">
              <mxPoint as="offset"/>
            </mxGeometry>
          </mxCell>
        </mxCell>
<mxCell id="conn_1093" style="edgeStyle=orthogonalEdgeStyle;rounded=0;orthogonalLoop=1;jettySize=auto;html=1;strokeColor=#3F51B5;strokeWidth=2;fontColor=#3F51B5;" edge="1" parent="1" source="iam" target="fargate">
          <mxGeometry relative="1" as="geometry">
            <mxPoint x="0" y="-10" as="offset"/>
            <Array as="points"/>
          </mxGeometry>
          <mxCell value="Assume Role" style="edgeLabel;html=1;align=center;verticalAlign=middle;resizable=0;points=[];fontSize=10;fontColor=#3F51B5;" vertex="1" connectable="0" parent="conn_1093">
            <mxGeometry x="-0.1" y="1" relative="1" as="geometry">
              <mxPoint as="offset"/>
            </mxGeometry>
          </mxCell>
        </mxCell>
<mxCell id="conn_1094" style="edgeStyle=orthogonalEdgeStyle;rounded=0;orthogonalLoop=1;jettySize=auto;html=1;strokeColor=#3F51B5;strokeWidth=2;fontColor=#3F51B5;" edge="1" parent="1" source="fargate" target="secrets">
          <mxGeometry relative="1" as="geometry">
            <mxPoint x="0" y="-10" as="offset"/>
            <Array as="points"/>
          </mxGeometry>
          <mxCell value="Retrieve Secrets" style="edgeLabel;html=1;align=center;verticalAlign=middle;resizable=0;points=[];fontSize=10;fontColor=#3F51B5;" vertex="1" connectable="0" parent="conn_1094">
            <mxGeometry x="-0.1" y="1" relative="1" as="geometry">
              <mxPoint as="offset"/>
            </mxGeometry>
          </mxCell>
        </mxCell>
<mxCell id="conn_1095" style="edgeStyle=orthogonalEdgeStyle;rounded=0;orthogonalLoop=1;jettySize=auto;html=1;strokeColor=#00695C;strokeWidth=2;fontColor=#00695C;" edge="1" parent="1" source="fargate" target="kms">
          <mxGeometry relative="1" as="geometry">
            <mxPoint x="0" y="-10" as="offset"/>
            <Array as="points"/>
          </mxGeometry>
          <mxCell value="Encrypt/Decrypt" style="edgeLabel;html=1;align=center;verticalAlign=middle;resizable=0;points=[];fontSize=10;fontColor=#00695C;" vertex="1" connectable="0" parent="conn_1095">
            <mxGeometry x="-0.1" y="1" relative="1" as="geometry">
              <mxPoint as="offset"/>
            </mxGeometry>
          </mxCell>
        </mxCell>
<mxCell id="conn_1096" style="edgeStyle=orthogonalEdgeStyle;rounded=0;orthogonalLoop=1;jettySize=auto;html=1;strokeColor=#00695C;strokeWidth=2;fontColor=#00695C;" edge="1" parent="1" source="kms" target="rds">
          <mxGeometry relative="1" as="geometry">
            <mxPoint x="0" y="-10" as="offset"/>
            <Array as="points"/>
          </mxGeometry>
          <mxCell value="Protect Data" style="edgeLabel;html=1;align=center;verticalAlign=middle;resizable=0;points=[];fontSize=10;fontColor=#00695C;" vertex="1" connectable="0" parent="conn_1096">
            <mxGeometry x="-0.1" y="1" relative="1" as="geometry">
              <mxPoint as="offset"/>
            </mxGeometry>
          </mxCell>
        </mxCell>
<mxCell id="conn_1097" style="edgeStyle=orthogonalEdgeStyle;rounded=0;orthogonalLoop=1;jettySize=auto;html=1;strokeColor=#00695C;strokeWidth=2;fontColor=#00695C;" edge="1" parent="1" source="kms" target="s3">
          <mxGeometry relative="1" as="geometry">
            <mxPoint x="0" y="-10" as="offset"/>
            <Array as="points"/>
          </mxGeometry>
          <mxCell value="Protect Files" style="edgeLabel;html=1;align=center;verticalAlign=middle;resizable=0;points=[];fontSize=10;fontColor=#00695C;" vertex="1" connectable="0" parent="conn_1097">
            <mxGeometry x="-0.1" y="1" relative="1" as="geometry">
              <mxPoint as="offset"/>
            </mxGeometry>
          </mxCell>
        </mxCell>
<mxCell id="conn_1098" style="edgeStyle=orthogonalEdgeStyle;rounded=0;orthogonalLoop=1;jettySize=auto;html=1;strokeColor=#E65100;strokeWidth=2;fontColor=#E65100;" edge="1" parent="1" source="fargate" target="vpc">
          <mxGeometry relative="1" as="geometry">
            <mxPoint x="0" y="-10" as="offset"/>
            <Array as="points"/>
          </mxGeometry>
          <mxCell value="Network Control" style="edgeLabel;html=1;align=center;verticalAlign=middle;resizable=0;points=[];fontSize=10;fontColor=#E65100;" vertex="1" connectable="0" parent="conn_1098">
            <mxGeometry x="-0.1" y="1" relative="1" as="geometry">
              <mxPoint as="offset"/>
            </mxGeometry>
          </mxCell>
        </mxCell>
<mxCell id="conn_1099" style="edgeStyle=orthogonalEdgeStyle;rounded=0;orthogonalLoop=1;jettySize=auto;html=1;strokeColor=#E65100;strokeWidth=2;fontColor=#E65100;" edge="1" parent="1" source="vpc" target="security_groups">
          <mxGeometry relative="1" as="geometry">
            <mxPoint x="0" y="-10" as="offset"/>
            <Array as="points"/>
          </mxGeometry>
          <mxCell value="Traffic Rules" style="edgeLabel;html=1;align=center;verticalAlign=middle;resizable=0;points=[];fontSize=10;fontColor=#E65100;" vertex="1" connectable="0" parent="conn_1099">
            <mxGeometry x="-0.1" y="1" relative="1" as="geometry">
              <mxPoint as="offset"/>
            </mxGeometry>
          </mxCell>
        </mxCell>
<mxCell id="conn_1100" style="edgeStyle=orthogonalEdgeStyle;rounded=0;orthogonalLoop=1;jettySize=auto;html=1;strokeColor=#FF9800;strokeWidth=2;fontColor=#FF9800;" edge="1" parent="1" source="fargate" target="cloudwatch">
          <mxGeometry relative="1" as="geometry">
            <mxPoint x="0" y="-10" as="offset"/>
            <Array as="points"/>
          </mxGeometry>
          <mxCell value="Security Logs" style="edgeLabel;html=1;align=center;verticalAlign=middle;resizable=0;points=[];fontSize=10;fontColor=#FF9800;" vertex="1" connectable="0" parent="conn_1100">
            <mxGeometry x="-0.1" y="1" relative="1" as="geometry">
              <mxPoint as="offset"/>
            </mxGeometry>
          </mxCell>
        </mxCell>
<mxCell id="conn_1101" style="edgeStyle=orthogonalEdgeStyle;rounded=0;orthogonalLoop=1;jettySize=auto;html=1;strokeColor=#FF9800;strokeWidth=2;fontColor=#FF9800;" edge="1" parent="1" source="api_gateway" target="cloudtrail">
          <mxGeometry relative="1" as="geometry">
            <mxPoint x="0" y="-10" as="offset"/>
            <Array as="points"/>
          </mxGeometry>
          <mxCell value="API Audit" style="edgeLabel;html=1;align=center;verticalAlign=middle;resizable=0;points=[];fontSize=10;fontColor=#FF9800;" vertex="1" connectable="0" parent="conn_1101">
            <mxGeometry x="-0.1" y="1" relative="1" as="geometry">
              <mxPoint as="offset"/>
            </mxGeometry>
          </mxCell>
        </mxCell>
      </root>
    </mxGraphModel>
  </diagram>
  <diagram name="Data Flow" id="diagram_3">
    <mxGraphModel dx="2500" dy="1600" grid="1" gridSize="10" guides="1" tooltips="1" connect="1" arrows="1" fold="1" page="1" pageScale="1" pageWidth="1400" pageHeight="1000">
      <root>
        <mxCell id="0"/>
        <mxCell id="1" parent="0"/>
        <mxCell id="title_1102" value="BMC DATA FLOW - AWS SENIOR ARCHITECT LEVEL" style="text;html=1;strokeColor=none;fillColor=none;align=center;verticalAlign=middle;whiteSpace=wrap;rounded=0;fontSize=18;fontStyle=1;fontColor=#1976D2;" vertex="1" parent="1">
          <mxGeometry x="400" y="20" width="600" height="30" as="geometry"/>
        </mxCell>
<mxCell id="external_sources_1103" value="External Data Sources - Multi-Channel" style="fillColor=#E3F2FD;strokeColor=#1976D2;dashed=1;verticalAlign=top;fontStyle=1;fontSize=14;fontColor=#1976D2;" vertex="1" parent="1">
          <mxGeometry x="50" y="80" width="1200" height="150" as="geometry"/>
        </mxCell>
<mxCell id="web_portal_1104" value="Web Portal\n10K DAU\nReact SPA\nMax 50MB/file\nProgress tracking" style="shape=mxgraph.aws4.users;labelPosition=bottom;verticalLabelPosition=top;align=center;verticalAlign=bottom;fillColor=#E8F5E8;strokeColor=#4CAF50;fontColor=#2E7D32;" vertex="1" parent="1">
          <mxGeometry x="100" y="120" width="78" height="78" as="geometry"/>
        </mxCell>
<mxCell id="mobile_app_1105" value="Mobile App\nReact Native\nImage compression\nOffline sync\nPush notifications" style="shape=mxgraph.aws4.mobile_client;labelPosition=bottom;verticalLabelPosition=top;align=center;verticalAlign=bottom;fillColor=#E8F5E8;strokeColor=#4CAF50;fontColor=#2E7D32;" vertex="1" parent="1">
          <mxGeometry x="250" y="120" width="78" height="78" as="geometry"/>
        </mxCell>
<mxCell id="api_clients_1106" value="API Clients\n1K req/s\nOAuth 2.0\nRate limited\nSDK support" style="shape=mxgraph.aws4.api_gateway;labelPosition=bottom;verticalLabelPosition=top;align=center;verticalAlign=bottom;fillColor=#E8F5E8;strokeColor=#4CAF50;fontColor=#2E7D32;" vertex="1" parent="1">
          <mxGeometry x="400" y="120" width="78" height="78" as="geometry"/>
        </mxCell>
<mxCell id="sftp_server_1107" value="SFTP Server\nScheduled: 02:00 UTC\n100K records/batch\nPGP encrypted\nChecksum validation" style="shape=mxgraph.aws4.storage_gateway;labelPosition=bottom;verticalLabelPosition=top;align=center;verticalAlign=bottom;fillColor=#E8F5E8;strokeColor=#4CAF50;fontColor=#2E7D32;" vertex="1" parent="1">
          <mxGeometry x="550" y="120" width="78" height="78" as="geometry"/>
        </mxCell>
<mxCell id="erp_systems_1108" value="ERP Systems\nSAP/Oracle\nReal-time CDC\nKafka streams\nSchema registry" style="shape=mxgraph.aws4.database;labelPosition=bottom;verticalLabelPosition=top;align=center;verticalAlign=bottom;fillColor=#E8F5E8;strokeColor=#4CAF50;fontColor=#2E7D32;" vertex="1" parent="1">
          <mxGeometry x="700" y="120" width="78" height="78" as="geometry"/>
        </mxCell>
<mxCell id="ingestion_layer_1109" value="Ingestion Layer - Event-Driven" style="fillColor=#E8F5E8;strokeColor=#4CAF50;dashed=1;verticalAlign=top;fontStyle=1;fontSize=14;fontColor=#4CAF50;" vertex="1" parent="1">
          <mxGeometry x="50" y="280" width="1200" height="150" as="geometry"/>
        </mxCell>
<mxCell id="s3_raw_1110" value="S3 Raw Landing\nMultipart upload\nEvent notifications\nLifecycle: 30d â†’ IA\nCross-region replication" style="shape=mxgraph.aws4.s3;labelPosition=bottom;verticalLabelPosition=top;align=center;verticalAlign=bottom;fillColor=#E8F5E8;strokeColor=#4CAF50;fontColor=#2E7D32;" vertex="1" parent="1">
          <mxGeometry x="100" y="320" width="78" height="78" as="geometry"/>
        </mxCell>
<mxCell id="lambda_validator_1111" value="File Validator\n1GB memory\n15min timeout\nDLQ enabled\nX-Ray tracing\nError handling" style="shape=mxgraph.aws4.lambda;labelPosition=bottom;verticalLabelPosition=top;align=center;verticalAlign=bottom;fillColor=#E8F5E8;strokeColor=#4CAF50;fontColor=#2E7D32;" vertex="1" parent="1">
          <mxGeometry x="250" y="320" width="78" height="78" as="geometry"/>
        </mxCell>
<mxCell id="sqs_validation_1112" value="Validation Queue\nFIFO\n5min visibility\n3 retries\nDLQ\nMessage deduplication" style="shape=mxgraph.aws4.sqs;labelPosition=bottom;verticalLabelPosition=top;align=center;verticalAlign=bottom;fillColor=#E8F5E8;strokeColor=#4CAF50;fontColor=#2E7D32;" vertex="1" parent="1">
          <mxGeometry x="400" y="320" width="78" height="78" as="geometry"/>
        </mxCell>
<mxCell id="lambda_virus_1113" value="Virus Scanner\nClamAV integration\nQuarantine on detect\n512MB memory\nAsync processing" style="shape=mxgraph.aws4.lambda;labelPosition=bottom;verticalLabelPosition=top;align=center;verticalAlign=bottom;fillColor=#E8F5E8;strokeColor=#4CAF50;fontColor=#2E7D32;" vertex="1" parent="1">
          <mxGeometry x="550" y="320" width="78" height="78" as="geometry"/>
        </mxCell>
<mxCell id="s3_quarantine_1114" value="S3 Quarantine\nFailed uploads\nManual review\nCompliance logging\nAccess restricted" style="shape=mxgraph.aws4.s3;labelPosition=bottom;verticalLabelPosition=top;align=center;verticalAlign=bottom;fillColor=#E8F5E8;strokeColor=#4CAF50;fontColor=#2E7D32;" vertex="1" parent="1">
          <mxGeometry x="700" y="320" width="78" height="78" as="geometry"/>
        </mxCell>
<mxCell id="processing_pipeline_1115" value="Processing Pipeline - Microservices" style="fillColor=#FCE4EC;strokeColor=#E91E63;dashed=1;verticalAlign=top;fontStyle=1;fontSize=14;fontColor=#E91E63;" vertex="1" parent="1">
          <mxGeometry x="50" y="480" width="1200" height="200" as="geometry"/>
        </mxCell>
<mxCell id="ocr_processing_1116" value="OCR Processing" style="fillColor=#FFF3E0;strokeColor=#FF9800;dashed=1;verticalAlign=top;fontStyle=1;fontSize=14;fontColor=#FF9800;" vertex="1" parent="1">
          <mxGeometry x="100" y="520" width="250" height="120" as="geometry"/>
        </mxCell>
<mxCell id="fargate_ocr_1117" value="OCR Service\n4vCPU/8GB\nAuto scaling 2-20\nSpot instances 70%\nCircuit breaker" style="shape=mxgraph.aws4.fargate;labelPosition=bottom;verticalLabelPosition=top;align=center;verticalAlign=bottom;fillColor=#E8F5E8;strokeColor=#4CAF50;fontColor=#2E7D32;" vertex="1" parent="1">
          <mxGeometry x="120" y="550" width="78" height="78" as="geometry"/>
        </mxCell>
<mxCell id="textract_1118" value="Textract Async\n>95% accuracy\nForms + Tables\nHandwriting\nCustom models" style="shape=mxgraph.aws4.textract;labelPosition=bottom;verticalLabelPosition=top;align=center;verticalAlign=bottom;fillColor=#E8F5E8;strokeColor=#4CAF50;fontColor=#2E7D32;" vertex="1" parent="1">
          <mxGeometry x="200" y="550" width="78" height="78" as="geometry"/>
        </mxCell>
<mxCell id="business_logic_1119" value="Business Logic" style="fillColor=#E8EAF6;strokeColor=#3F51B5;dashed=1;verticalAlign=top;fontStyle=1;fontSize=14;fontColor=#3F51B5;" vertex="1" parent="1">
          <mxGeometry x="400" y="520" width="350" height="120" as="geometry"/>
        </mxCell>
<mxCell id="fargate_invoice_1120" value="Invoice Service\n2vCPU/4GB\nBlue/Green deploy\nHealth checks\nMetrics" style="shape=mxgraph.aws4.fargate;labelPosition=bottom;verticalLabelPosition=top;align=center;verticalAlign=bottom;fillColor=#E8F5E8;strokeColor=#4CAF50;fontColor=#2E7D32;" vertex="1" parent="1">
          <mxGeometry x="420" y="550" width="78" height="78" as="geometry"/>
        </mxCell>
<mxCell id="fargate_product_1121" value="Product Service\n4vCPU/8GB\n60M products\nElasticsearch\nCache-aside" style="shape=mxgraph.aws4.fargate;labelPosition=bottom;verticalLabelPosition=top;align=center;verticalAlign=bottom;fillColor=#E8F5E8;strokeColor=#4CAF50;fontColor=#2E7D32;" vertex="1" parent="1">
          <mxGeometry x="500" y="550" width="78" height="78" as="geometry"/>
        </mxCell>
<mxCell id="fargate_commission_1122" value="Commission Service\n2vCPU/4GB\nDIAN compliance\nAudit trail\nRetry logic" style="shape=mxgraph.aws4.fargate;labelPosition=bottom;verticalLabelPosition=top;align=center;verticalAlign=bottom;fillColor=#E8F5E8;strokeColor=#4CAF50;fontColor=#2E7D32;" vertex="1" parent="1">
          <mxGeometry x="580" y="550" width="78" height="78" as="geometry"/>
        </mxCell>
<mxCell id="integration_1123" value="Integration" style="fillColor=#F3E5F5;strokeColor=#9C27B0;dashed=1;verticalAlign=top;fontStyle=1;fontSize=14;fontColor=#9C27B0;" vertex="1" parent="1">
          <mxGeometry x="800" y="520" width="200" height="120" as="geometry"/>
        </mxCell>
<mxCell id="step_functions_1124" value="Step Functions\nWorkflow orchestration\nError handling\nRetry logic\nState machine" style="shape=mxgraph.aws4.step_functions;labelPosition=bottom;verticalLabelPosition=top;align=center;verticalAlign=bottom;fillColor=#E8F5E8;strokeColor=#4CAF50;fontColor=#2E7D32;" vertex="1" parent="1">
          <mxGeometry x="820" y="550" width="78" height="78" as="geometry"/>
        </mxCell>
<mxCell id="eventbridge_1125" value="EventBridge\nCustom event bus\nSchema registry\nReplay capability\nDLQ" style="shape=mxgraph.aws4.eventbridge;labelPosition=bottom;verticalLabelPosition=top;align=center;verticalAlign=bottom;fillColor=#E8F5E8;strokeColor=#4CAF50;fontColor=#2E7D32;" vertex="1" parent="1">
          <mxGeometry x="900" y="550" width="78" height="78" as="geometry"/>
        </mxCell>
<mxCell id="data_storage_1126" value="Data Storage - Multi-Tier Architecture" style="fillColor=#F5F5F5;strokeColor=#666666;dashed=1;verticalAlign=top;fontStyle=1;fontSize=14;fontColor=#666666;" vertex="1" parent="1">
          <mxGeometry x="50" y="720" width="1200" height="200" as="geometry"/>
        </mxCell>
<mxCell id="hot_data_1127" value="Hot Data (< 1 day)" style="fillColor=#FFEBEE;strokeColor=#D32F2F;dashed=1;verticalAlign=top;fontStyle=1;fontSize=14;fontColor=#D32F2F;" vertex="1" parent="1">
          <mxGeometry x="100" y="760" width="300" height="120" as="geometry"/>
        </mxCell>
<mxCell id="redis_cluster_1128" value="Redis Cluster\n6 nodes (3 shards)\nMulti-AZ\n99.9% availability\nCluster mode" style="shape=mxgraph.aws4.elasticache;labelPosition=bottom;verticalLabelPosition=top;align=center;verticalAlign=bottom;fillColor=#E8F5E8;strokeColor=#4CAF50;fontColor=#2E7D32;" vertex="1" parent="1">
          <mxGeometry x="120" y="790" width="78" height="78" as="geometry"/>
        </mxCell>
<mxCell id="rds_primary_1129" value="RDS Primary\nPostgreSQL 14\ndb.r6g.2xlarge\n35-day backup\nPerformance Insights" style="shape=mxgraph.aws4.rds;labelPosition=bottom;verticalLabelPosition=top;align=center;verticalAlign=bottom;fillColor=#E8F5E8;strokeColor=#4CAF50;fontColor=#2E7D32;" vertex="1" parent="1">
          <mxGeometry x="220" y="790" width="78" height="78" as="geometry"/>
        </mxCell>
<mxCell id="warm_data_1130" value="Warm Data (1-90 days)" style="fillColor=#E8F5E8;strokeColor=#4CAF50;dashed=1;verticalAlign=top;fontStyle=1;fontSize=14;fontColor=#4CAF50;" vertex="1" parent="1">
          <mxGeometry x="450" y="760" width="300" height="120" as="geometry"/>
        </mxCell>
<mxCell id="rds_replica_1131" value="Read Replica\nCross-AZ replication\nRead scaling\nConnection pooling\nLag monitoring" style="shape=mxgraph.aws4.rds;labelPosition=bottom;verticalLabelPosition=top;align=center;verticalAlign=bottom;fillColor=#E8F5E8;strokeColor=#4CAF50;fontColor=#2E7D32;" vertex="1" parent="1">
          <mxGeometry x="470" y="790" width="78" height="78" as="geometry"/>
        </mxCell>
<mxCell id="s3_processed_1132" value="S3 Processed\nParquet format\nPartitioned by date\nCompression: GZIP\nAthena optimized" style="shape=mxgraph.aws4.s3;labelPosition=bottom;verticalLabelPosition=top;align=center;verticalAlign=bottom;fillColor=#E8F5E8;strokeColor=#4CAF50;fontColor=#2E7D32;" vertex="1" parent="1">
          <mxGeometry x="570" y="790" width="78" height="78" as="geometry"/>
        </mxCell>
<mxCell id="cold_data_1133" value="Cold Data (> 90 days)" style="fillColor=#E3F2FD;strokeColor=#1976D2;dashed=1;verticalAlign=top;fontStyle=1;fontSize=14;fontColor=#1976D2;" vertex="1" parent="1">
          <mxGeometry x="800" y="760" width="300" height="120" as="geometry"/>
        </mxCell>
<mxCell id="s3_glacier_1134" value="S3 Glacier\n7-year retention\nCompliance archive\nRestore: 12h\nVault lock" style="shape=mxgraph.aws4.glacier;labelPosition=bottom;verticalLabelPosition=top;align=center;verticalAlign=bottom;fillColor=#E8F5E8;strokeColor=#4CAF50;fontColor=#2E7D32;" vertex="1" parent="1">
          <mxGeometry x="820" y="790" width="78" height="78" as="geometry"/>
        </mxCell>
<mxCell id="redshift_1135" value="Redshift Cluster\ndc2.large x3\nColumnar storage\nBI analytics\nSpectrum" style="shape=mxgraph.aws4.redshift;labelPosition=bottom;verticalLabelPosition=top;align=center;verticalAlign=bottom;fillColor=#E8F5E8;strokeColor=#4CAF50;fontColor=#2E7D32;" vertex="1" parent="1">
          <mxGeometry x="920" y="790" width="78" height="78" as="geometry"/>
        </mxCell>
<mxCell id="conn_1136" style="edgeStyle=orthogonalEdgeStyle;rounded=0;orthogonalLoop=1;jettySize=auto;html=1;strokeColor=#1976D2;strokeWidth=2;fontColor=#1976D2;" edge="1" parent="1" source="web_portal" target="s3_raw">
          <mxGeometry relative="1" as="geometry">
            <mxPoint x="0" y="-10" as="offset"/>
            <Array as="points"/>
          </mxGeometry>
          <mxCell value="Upload" style="edgeLabel;html=1;align=center;verticalAlign=middle;resizable=0;points=[];fontSize=10;fontColor=#1976D2;" vertex="1" connectable="0" parent="conn_1136">
            <mxGeometry x="-0.1" y="1" relative="1" as="geometry">
              <mxPoint as="offset"/>
            </mxGeometry>
          </mxCell>
        </mxCell>
<mxCell id="conn_1137" style="edgeStyle=orthogonalEdgeStyle;rounded=0;orthogonalLoop=1;jettySize=auto;html=1;strokeColor=#1976D2;strokeWidth=2;fontColor=#1976D2;" edge="1" parent="1" source="mobile_app" target="s3_raw">
          <mxGeometry relative="1" as="geometry">
            <mxPoint x="0" y="-10" as="offset"/>
            <Array as="points"/>
          </mxGeometry>
          <mxCell value="Sync" style="edgeLabel;html=1;align=center;verticalAlign=middle;resizable=0;points=[];fontSize=10;fontColor=#1976D2;" vertex="1" connectable="0" parent="conn_1137">
            <mxGeometry x="-0.1" y="1" relative="1" as="geometry">
              <mxPoint as="offset"/>
            </mxGeometry>
          </mxCell>
        </mxCell>
<mxCell id="conn_1138" style="edgeStyle=orthogonalEdgeStyle;rounded=0;orthogonalLoop=1;jettySize=auto;html=1;strokeColor=#1976D2;strokeWidth=2;fontColor=#1976D2;" edge="1" parent="1" source="api_clients" target="s3_raw">
          <mxGeometry relative="1" as="geometry">
            <mxPoint x="0" y="-10" as="offset"/>
            <Array as="points"/>
          </mxGeometry>
          <mxCell value="API" style="edgeLabel;html=1;align=center;verticalAlign=middle;resizable=0;points=[];fontSize=10;fontColor=#1976D2;" vertex="1" connectable="0" parent="conn_1138">
            <mxGeometry x="-0.1" y="1" relative="1" as="geometry">
              <mxPoint as="offset"/>
            </mxGeometry>
          </mxCell>
        </mxCell>
<mxCell id="conn_1139" style="edgeStyle=orthogonalEdgeStyle;rounded=0;orthogonalLoop=1;jettySize=auto;html=1;strokeColor=#1976D2;strokeWidth=2;fontColor=#1976D2;" edge="1" parent="1" source="sftp_server" target="s3_raw">
          <mxGeometry relative="1" as="geometry">
            <mxPoint x="0" y="-10" as="offset"/>
            <Array as="points"/>
          </mxGeometry>
          <mxCell value="Batch" style="edgeLabel;html=1;align=center;verticalAlign=middle;resizable=0;points=[];fontSize=10;fontColor=#1976D2;" vertex="1" connectable="0" parent="conn_1139">
            <mxGeometry x="-0.1" y="1" relative="1" as="geometry">
              <mxPoint as="offset"/>
            </mxGeometry>
          </mxCell>
        </mxCell>
<mxCell id="conn_1140" style="edgeStyle=orthogonalEdgeStyle;rounded=0;orthogonalLoop=1;jettySize=auto;html=1;strokeColor=#1976D2;strokeWidth=2;fontColor=#1976D2;" edge="1" parent="1" source="erp_systems" target="s3_raw">
          <mxGeometry relative="1" as="geometry">
            <mxPoint x="0" y="-10" as="offset"/>
            <Array as="points"/>
          </mxGeometry>
          <mxCell value="CDC" style="edgeLabel;html=1;align=center;verticalAlign=middle;resizable=0;points=[];fontSize=10;fontColor=#1976D2;" vertex="1" connectable="0" parent="conn_1140">
            <mxGeometry x="-0.1" y="1" relative="1" as="geometry">
              <mxPoint as="offset"/>
            </mxGeometry>
          </mxCell>
        </mxCell>
<mxCell id="conn_1141" style="edgeStyle=orthogonalEdgeStyle;rounded=0;orthogonalLoop=1;jettySize=auto;html=1;strokeColor=#4CAF50;strokeWidth=2;fontColor=#4CAF50;" edge="1" parent="1" source="s3_raw" target="lambda_validator">
          <mxGeometry relative="1" as="geometry">
            <mxPoint x="0" y="-10" as="offset"/>
            <Array as="points"/>
          </mxGeometry>
          <mxCell value="Trigger" style="edgeLabel;html=1;align=center;verticalAlign=middle;resizable=0;points=[];fontSize=10;fontColor=#4CAF50;" vertex="1" connectable="0" parent="conn_1141">
            <mxGeometry x="-0.1" y="1" relative="1" as="geometry">
              <mxPoint as="offset"/>
            </mxGeometry>
          </mxCell>
        </mxCell>
<mxCell id="conn_1142" style="edgeStyle=orthogonalEdgeStyle;rounded=0;orthogonalLoop=1;jettySize=auto;html=1;strokeColor=#4CAF50;strokeWidth=2;fontColor=#4CAF50;" edge="1" parent="1" source="lambda_validator" target="lambda_virus">
          <mxGeometry relative="1" as="geometry">
            <mxPoint x="0" y="-10" as="offset"/>
            <Array as="points"/>
          </mxGeometry>
          <mxCell value="Validate" style="edgeLabel;html=1;align=center;verticalAlign=middle;resizable=0;points=[];fontSize=10;fontColor=#4CAF50;" vertex="1" connectable="0" parent="conn_1142">
            <mxGeometry x="-0.1" y="1" relative="1" as="geometry">
              <mxPoint as="offset"/>
            </mxGeometry>
          </mxCell>
        </mxCell>
<mxCell id="conn_1143" style="edgeStyle=orthogonalEdgeStyle;rounded=0;orthogonalLoop=1;jettySize=auto;html=1;strokeColor=#FF5722;strokeWidth=2;fontColor=#FF5722;" edge="1" parent="1" source="lambda_virus" target="s3_quarantine">
          <mxGeometry relative="1" as="geometry">
            <mxPoint x="0" y="-10" as="offset"/>
            <Array as="points"/>
          </mxGeometry>
          <mxCell value="Quarantine" style="edgeLabel;html=1;align=center;verticalAlign=middle;resizable=0;points=[];fontSize=10;fontColor=#FF5722;" vertex="1" connectable="0" parent="conn_1143">
            <mxGeometry x="-0.1" y="1" relative="1" as="geometry">
              <mxPoint as="offset"/>
            </mxGeometry>
          </mxCell>
        </mxCell>
<mxCell id="conn_1144" style="edgeStyle=orthogonalEdgeStyle;rounded=0;orthogonalLoop=1;jettySize=auto;html=1;strokeColor=#4CAF50;strokeWidth=2;fontColor=#4CAF50;" edge="1" parent="1" source="lambda_validator" target="sqs_validation">
          <mxGeometry relative="1" as="geometry">
            <mxPoint x="0" y="-10" as="offset"/>
            <Array as="points"/>
          </mxGeometry>
          <mxCell value="Queue" style="edgeLabel;html=1;align=center;verticalAlign=middle;resizable=0;points=[];fontSize=10;fontColor=#4CAF50;" vertex="1" connectable="0" parent="conn_1144">
            <mxGeometry x="-0.1" y="1" relative="1" as="geometry">
              <mxPoint as="offset"/>
            </mxGeometry>
          </mxCell>
        </mxCell>
<mxCell id="conn_1145" style="edgeStyle=orthogonalEdgeStyle;rounded=0;orthogonalLoop=1;jettySize=auto;html=1;strokeColor=#FF9800;strokeWidth=2;fontColor=#FF9800;" edge="1" parent="1" source="sqs_validation" target="fargate_ocr">
          <mxGeometry relative="1" as="geometry">
            <mxPoint x="0" y="-10" as="offset"/>
            <Array as="points"/>
          </mxGeometry>
          <mxCell value="Process" style="edgeLabel;html=1;align=center;verticalAlign=middle;resizable=0;points=[];fontSize=10;fontColor=#FF9800;" vertex="1" connectable="0" parent="conn_1145">
            <mxGeometry x="-0.1" y="1" relative="1" as="geometry">
              <mxPoint as="offset"/>
            </mxGeometry>
          </mxCell>
        </mxCell>
<mxCell id="conn_1146" style="edgeStyle=orthogonalEdgeStyle;rounded=0;orthogonalLoop=1;jettySize=auto;html=1;strokeColor=#FF9800;strokeWidth=2;fontColor=#FF9800;" edge="1" parent="1" source="fargate_ocr" target="textract">
          <mxGeometry relative="1" as="geometry">
            <mxPoint x="0" y="-10" as="offset"/>
            <Array as="points"/>
          </mxGeometry>
          <mxCell value="OCR" style="edgeLabel;html=1;align=center;verticalAlign=middle;resizable=0;points=[];fontSize=10;fontColor=#FF9800;" vertex="1" connectable="0" parent="conn_1146">
            <mxGeometry x="-0.1" y="1" relative="1" as="geometry">
              <mxPoint as="offset"/>
            </mxGeometry>
          </mxCell>
        </mxCell>
<mxCell id="conn_1147" style="edgeStyle=orthogonalEdgeStyle;rounded=0;orthogonalLoop=1;jettySize=auto;html=1;strokeColor=#9C27B0;strokeWidth=2;fontColor=#9C27B0;" edge="1" parent="1" source="textract" target="step_functions">
          <mxGeometry relative="1" as="geometry">
            <mxPoint x="0" y="-10" as="offset"/>
            <Array as="points"/>
          </mxGeometry>
          <mxCell value="Orchestrate" style="edgeLabel;html=1;align=center;verticalAlign=middle;resizable=0;points=[];fontSize=10;fontColor=#9C27B0;" vertex="1" connectable="0" parent="conn_1147">
            <mxGeometry x="-0.1" y="1" relative="1" as="geometry">
              <mxPoint as="offset"/>
            </mxGeometry>
          </mxCell>
        </mxCell>
<mxCell id="conn_1148" style="edgeStyle=orthogonalEdgeStyle;rounded=0;orthogonalLoop=1;jettySize=auto;html=1;strokeColor=#3F51B5;strokeWidth=2;fontColor=#3F51B5;" edge="1" parent="1" source="step_functions" target="fargate_invoice">
          <mxGeometry relative="1" as="geometry">
            <mxPoint x="0" y="-10" as="offset"/>
            <Array as="points"/>
          </mxGeometry>
          <mxCell value="Invoice" style="edgeLabel;html=1;align=center;verticalAlign=middle;resizable=0;points=[];fontSize=10;fontColor=#3F51B5;" vertex="1" connectable="0" parent="conn_1148">
            <mxGeometry x="-0.1" y="1" relative="1" as="geometry">
              <mxPoint as="offset"/>
            </mxGeometry>
          </mxCell>
        </mxCell>
<mxCell id="conn_1149" style="edgeStyle=orthogonalEdgeStyle;rounded=0;orthogonalLoop=1;jettySize=auto;html=1;strokeColor=#3F51B5;strokeWidth=2;fontColor=#3F51B5;" edge="1" parent="1" source="fargate_invoice" target="fargate_product">
          <mxGeometry relative="1" as="geometry">
            <mxPoint x="0" y="-10" as="offset"/>
            <Array as="points"/>
          </mxGeometry>
          <mxCell value="Product" style="edgeLabel;html=1;align=center;verticalAlign=middle;resizable=0;points=[];fontSize=10;fontColor=#3F51B5;" vertex="1" connectable="0" parent="conn_1149">
            <mxGeometry x="-0.1" y="1" relative="1" as="geometry">
              <mxPoint as="offset"/>
            </mxGeometry>
          </mxCell>
        </mxCell>
<mxCell id="conn_1150" style="edgeStyle=orthogonalEdgeStyle;rounded=0;orthogonalLoop=1;jettySize=auto;html=1;strokeColor=#3F51B5;strokeWidth=2;fontColor=#3F51B5;" edge="1" parent="1" source="fargate_product" target="fargate_commission">
          <mxGeometry relative="1" as="geometry">
            <mxPoint x="0" y="-10" as="offset"/>
            <Array as="points"/>
          </mxGeometry>
          <mxCell value="Commission" style="edgeLabel;html=1;align=center;verticalAlign=middle;resizable=0;points=[];fontSize=10;fontColor=#3F51B5;" vertex="1" connectable="0" parent="conn_1150">
            <mxGeometry x="-0.1" y="1" relative="1" as="geometry">
              <mxPoint as="offset"/>
            </mxGeometry>
          </mxCell>
        </mxCell>
<mxCell id="conn_1151" style="edgeStyle=orthogonalEdgeStyle;rounded=0;orthogonalLoop=1;jettySize=auto;html=1;strokeColor=#9C27B0;strokeWidth=2;fontColor=#9C27B0;" edge="1" parent="1" source="fargate_commission" target="eventbridge">
          <mxGeometry relative="1" as="geometry">
            <mxPoint x="0" y="-10" as="offset"/>
            <Array as="points"/>
          </mxGeometry>
          <mxCell value="Events" style="edgeLabel;html=1;align=center;verticalAlign=middle;resizable=0;points=[];fontSize=10;fontColor=#9C27B0;" vertex="1" connectable="0" parent="conn_1151">
            <mxGeometry x="-0.1" y="1" relative="1" as="geometry">
              <mxPoint as="offset"/>
            </mxGeometry>
          </mxCell>
        </mxCell>
<mxCell id="conn_1152" style="edgeStyle=orthogonalEdgeStyle;rounded=0;orthogonalLoop=1;jettySize=auto;html=1;strokeColor=#D32F2F;strokeWidth=2;fontColor=#D32F2F;" edge="1" parent="1" source="fargate_invoice" target="redis_cluster">
          <mxGeometry relative="1" as="geometry">
            <mxPoint x="0" y="-10" as="offset"/>
            <Array as="points"/>
          </mxGeometry>
          <mxCell value="Cache" style="edgeLabel;html=1;align=center;verticalAlign=middle;resizable=0;points=[];fontSize=10;fontColor=#D32F2F;" vertex="1" connectable="0" parent="conn_1152">
            <mxGeometry x="-0.1" y="1" relative="1" as="geometry">
              <mxPoint as="offset"/>
            </mxGeometry>
          </mxCell>
        </mxCell>
<mxCell id="conn_1153" style="edgeStyle=orthogonalEdgeStyle;rounded=0;orthogonalLoop=1;jettySize=auto;html=1;strokeColor=#D32F2F;strokeWidth=2;fontColor=#D32F2F;" edge="1" parent="1" source="fargate_product" target="redis_cluster">
          <mxGeometry relative="1" as="geometry">
            <mxPoint x="0" y="-10" as="offset"/>
            <Array as="points"/>
          </mxGeometry>
          <mxCell value="Cache" style="edgeLabel;html=1;align=center;verticalAlign=middle;resizable=0;points=[];fontSize=10;fontColor=#D32F2F;" vertex="1" connectable="0" parent="conn_1153">
            <mxGeometry x="-0.1" y="1" relative="1" as="geometry">
              <mxPoint as="offset"/>
            </mxGeometry>
          </mxCell>
        </mxCell>
<mxCell id="conn_1154" style="edgeStyle=orthogonalEdgeStyle;rounded=0;orthogonalLoop=1;jettySize=auto;html=1;strokeColor=#D32F2F;strokeWidth=2;fontColor=#D32F2F;" edge="1" parent="1" source="redis_cluster" target="rds_primary">
          <mxGeometry relative="1" as="geometry">
            <mxPoint x="0" y="-10" as="offset"/>
            <Array as="points"/>
          </mxGeometry>
          <mxCell value="Persist" style="edgeLabel;html=1;align=center;verticalAlign=middle;resizable=0;points=[];fontSize=10;fontColor=#D32F2F;" vertex="1" connectable="0" parent="conn_1154">
            <mxGeometry x="-0.1" y="1" relative="1" as="geometry">
              <mxPoint as="offset"/>
            </mxGeometry>
          </mxCell>
        </mxCell>
<mxCell id="conn_1155" style="edgeStyle=orthogonalEdgeStyle;rounded=0;orthogonalLoop=1;jettySize=auto;html=1;strokeColor=#4CAF50;strokeWidth=2;fontColor=#4CAF50;" edge="1" parent="1" source="rds_primary" target="rds_replica">
          <mxGeometry relative="1" as="geometry">
            <mxPoint x="0" y="-10" as="offset"/>
            <Array as="points"/>
          </mxGeometry>
          <mxCell value="Replicate" style="edgeLabel;html=1;align=center;verticalAlign=middle;resizable=0;points=[];fontSize=10;fontColor=#4CAF50;" vertex="1" connectable="0" parent="conn_1155">
            <mxGeometry x="-0.1" y="1" relative="1" as="geometry">
              <mxPoint as="offset"/>
            </mxGeometry>
          </mxCell>
        </mxCell>
<mxCell id="conn_1156" style="edgeStyle=orthogonalEdgeStyle;rounded=0;orthogonalLoop=1;jettySize=auto;html=1;strokeColor=#4CAF50;strokeWidth=2;fontColor=#4CAF50;" edge="1" parent="1" source="rds_primary" target="s3_processed">
          <mxGeometry relative="1" as="geometry">
            <mxPoint x="0" y="-10" as="offset"/>
            <Array as="points"/>
          </mxGeometry>
          <mxCell value="ETL" style="edgeLabel;html=1;align=center;verticalAlign=middle;resizable=0;points=[];fontSize=10;fontColor=#4CAF50;" vertex="1" connectable="0" parent="conn_1156">
            <mxGeometry x="-0.1" y="1" relative="1" as="geometry">
              <mxPoint as="offset"/>
            </mxGeometry>
          </mxCell>
        </mxCell>
<mxCell id="conn_1157" style="edgeStyle=orthogonalEdgeStyle;rounded=0;orthogonalLoop=1;jettySize=auto;html=1;strokeColor=#1976D2;strokeWidth=2;fontColor=#1976D2;" edge="1" parent="1" source="s3_processed" target="s3_glacier">
          <mxGeometry relative="1" as="geometry">
            <mxPoint x="0" y="-10" as="offset"/>
            <Array as="points"/>
          </mxGeometry>
          <mxCell value="Archive" style="edgeLabel;html=1;align=center;verticalAlign=middle;resizable=0;points=[];fontSize=10;fontColor=#1976D2;" vertex="1" connectable="0" parent="conn_1157">
            <mxGeometry x="-0.1" y="1" relative="1" as="geometry">
              <mxPoint as="offset"/>
            </mxGeometry>
          </mxCell>
        </mxCell>
<mxCell id="conn_1158" style="edgeStyle=orthogonalEdgeStyle;rounded=0;orthogonalLoop=1;jettySize=auto;html=1;strokeColor=#1976D2;strokeWidth=2;fontColor=#1976D2;" edge="1" parent="1" source="s3_processed" target="redshift">
          <mxGeometry relative="1" as="geometry">
            <mxPoint x="0" y="-10" as="offset"/>
            <Array as="points"/>
          </mxGeometry>
          <mxCell value="Analytics" style="edgeLabel;html=1;align=center;verticalAlign=middle;resizable=0;points=[];fontSize=10;fontColor=#1976D2;" vertex="1" connectable="0" parent="conn_1158">
            <mxGeometry x="-0.1" y="1" relative="1" as="geometry">
              <mxPoint as="offset"/>
            </mxGeometry>
          </mxCell>
        </mxCell>
      </root>
    </mxGraphModel>
  </diagram></mxfile>